<svg id="visual" viewBox="0 0 900 70" width="900" height="70" xmlns="http://www.w3.org/2000/svg" xmlns:xlink="http://www.w3.org/1999/xlink" version="1.1"><rect x="0" y="0" width="900" height="70" fill="#FFFFFF"></rect><path d="M0 10L21.5 12.3C43 14.7 86 19.3 128.8 19.2C171.7 19 214.3 14 257.2 13.3C300 12.7 343 16.3 385.8 17.8C428.7 19.3 471.3 18.7 514.2 18.7C557 18.7 600 19.3 642.8 18.5C685.7 17.7 728.3 15.3 771.2 15.7C814 16 857 19 878.5 20.5L900 22L900 0L878.5 0C857 0 814 0 771.2 0C728.3 0 685.7 0 642.8 0C600 0 557 0 514.2 0C471.3 0 428.7 0 385.8 0C343 0 300 0 257.2 0C214.3 0 171.7 0 128.8 0C86 0 43 0 21.5 0L0 0Z" fill="#6610f2" stroke-linecap="round" stroke-linejoin="miter"></path></svg>